<?xml version="1.0" encoding="utf-8"?>
<svg version="1.1" width="1920" height="1080" preserveAspectRatio="none" viewBox="0 0 1920 1080" xmlns="http://www.w3.org/2000/svg" xmlns:xlink="http://www.w3.org/1999/xlink">
  <g mask="url(#SvgjsMask1170)" fill="none">
    <rect width="1920" height="1080" x="0" y="0" fill="rgba(241, 241, 241, 1)"/>
    <use xlink:href="#SvgjsSymbol1177"/>
    <use transform="matrix(1, 0, 0, 1, 0, 720)" xlink:href="#SvgjsSymbol1177"/>
    <use transform="matrix(1, 0, 0, 1, 720, 0)" xlink:href="#SvgjsSymbol1177"/>
    <use transform="matrix(1, 0, 0, 1, 720, 720)" xlink:href="#SvgjsSymbol1177"/>
    <use transform="matrix(1, 0, 0, 1, 1440, 0)" xlink:href="#SvgjsSymbol1177"/>
    <use transform="matrix(1, 0, 0, 1, 1440, 720)" xlink:href="#SvgjsSymbol1177"/>
  </g>
  <defs>
    <mask id="SvgjsMask1170">
      <rect width="1920" height="1080" fill="#ffffff"/>
    </mask>
    <path d="M-1 0 a1 1 0 1 0 2 0 a1 1 0 1 0 -2 0z" id="SvgjsPath1173"/>
    <path d="M-3 0 a3 3 0 1 0 6 0 a3 3 0 1 0 -6 0z" id="SvgjsPath1171"/>
    <path d="M-5 0 a5 5 0 1 0 10 0 a5 5 0 1 0 -10 0z" id="SvgjsPath1172"/>
    <path d="M2 -2 L-2 2z" id="SvgjsPath1175"/>
    <path d="M6 -6 L-6 6z" id="SvgjsPath1174"/>
    <path d="M30 -30 L-30 30z" id="SvgjsPath1176"/>
  </defs>
  <symbol id="SvgjsSymbol1177">
    <path d="M-3 0 a3 3 0 1 0 6 0 a3 3 0 1 0 -6 0z" transform="matrix(1, 0, 0, 1, 30, 30)" style="stroke: rgb(148, 191, 255);"/>
    <path d="M-5 0 a5 5 0 1 0 10 0 a5 5 0 1 0 -10 0z" transform="matrix(1, 0, 0, 1, 30, 90)" style="stroke: rgb(148, 191, 255);"/>
    <path d="M-1 0 a1 1 0 1 0 2 0 a1 1 0 1 0 -2 0z" transform="matrix(1, 0, 0, 1, 30, 150)" style="stroke: rgb(148, 191, 255);"/>
    <path d="M6 -6 L-6 6z" transform="matrix(1, 0, 0, 1, 30, 210)" style="stroke: rgb(148, 191, 255);"/>
    <path d="M-5 0 a5 5 0 1 0 10 0 a5 5 0 1 0 -10 0z" transform="matrix(1, 0, 0, 1, 30, 270)" style="stroke: rgb(148, 191, 255);"/>
    <path d="M-5 0 a5 5 0 1 0 10 0 a5 5 0 1 0 -10 0z" transform="matrix(1, 0, 0, 1, 30, 330)" style="stroke: rgb(148, 191, 255);"/>
    <path d="M-1 0 a1 1 0 1 0 2 0 a1 1 0 1 0 -2 0z" transform="matrix(1, 0, 0, 1, 30, 390)" style="stroke: rgb(148, 191, 255);"/>
    <path d="M-1 0 a1 1 0 1 0 2 0 a1 1 0 1 0 -2 0z" transform="matrix(1, 0, 0, 1, 30, 450)" style="stroke: rgb(148, 191, 255);"/>
    <path d="M6 -6 L-6 6z" transform="matrix(1, 0, 0, 1, 30, 510)" style="stroke: rgb(148, 191, 255);"/>
    <path d="M-5 0 a5 5 0 1 0 10 0 a5 5 0 1 0 -10 0z" transform="matrix(1, 0, 0, 1, 30, 570)" style="stroke: rgb(148, 191, 255);"/>
    <path d="M6 -6 L-6 6z" transform="matrix(1, 0, 0, 1, 30, 630)" style="stroke: rgb(148, 191, 255);"/>
    <path d="M6 -6 L-6 6z" transform="matrix(1, 0, 0, 1, 30, 690)" style="stroke: rgb(148, 191, 255);"/>
    <path d="M-1 0 a1 1 0 1 0 2 0 a1 1 0 1 0 -2 0z" transform="matrix(1, 0, 0, 1, 90, 30)" style="stroke: rgb(148, 191, 255);"/>
    <path d="M-5 0 a5 5 0 1 0 10 0 a5 5 0 1 0 -10 0z" transform="matrix(1, 0, 0, 1, 90, 90)" style="stroke: rgb(148, 191, 255);"/>
    <path d="M6 -6 L-6 6z" transform="matrix(1, 0, 0, 1, 90, 150)" style="stroke: rgb(148, 191, 255);"/>
    <path d="M6 -6 L-6 6z" transform="matrix(1, 0, 0, 1, 90, 210)" style="stroke: rgb(148, 191, 255);"/>
    <path d="M-5 0 a5 5 0 1 0 10 0 a5 5 0 1 0 -10 0z" transform="matrix(1, 0, 0, 1, 90, 270)" style="stroke: rgb(148, 191, 255);"/>
    <path d="M-5 0 a5 5 0 1 0 10 0 a5 5 0 1 0 -10 0z" transform="matrix(1, 0, 0, 1, 90, 330)" style="stroke: rgb(148, 191, 255);"/>
    <path d="M-3 0 a3 3 0 1 0 6 0 a3 3 0 1 0 -6 0z" transform="matrix(1, 0, 0, 1, 90, 390)" style="stroke: rgb(148, 191, 255);"/>
    <path d="M6 -6 L-6 6z" transform="matrix(1, 0, 0, 1, 90, 450)" style="stroke: rgb(148, 191, 255);"/>
    <path d="M-5 0 a5 5 0 1 0 10 0 a5 5 0 1 0 -10 0z" transform="matrix(1, 0, 0, 1, 90, 510)" style="stroke: rgb(148, 191, 255);"/>
    <path d="M-5 0 a5 5 0 1 0 10 0 a5 5 0 1 0 -10 0z" transform="matrix(1, 0, 0, 1, 90, 570)" style="stroke: rgb(148, 191, 255);"/>
    <path d="M6 -6 L-6 6z" transform="matrix(1, 0, 0, 1, 90, 630)" style="stroke: rgb(148, 191, 255);"/>
    <path d="M-3 0 a3 3 0 1 0 6 0 a3 3 0 1 0 -6 0z" transform="matrix(1, 0, 0, 1, 90, 690)" style="stroke: rgb(148, 191, 255);"/>
    <path d="M-1 0 a1 1 0 1 0 2 0 a1 1 0 1 0 -2 0z" transform="matrix(1, 0, 0, 1, 150, 30)" style="stroke: rgb(148, 191, 255);"/>
    <path d="M-5 0 a5 5 0 1 0 10 0 a5 5 0 1 0 -10 0z" transform="matrix(1, 0, 0, 1, 150, 90)" style="stroke: rgb(148, 191, 255);"/>
    <path d="M-3 0 a3 3 0 1 0 6 0 a3 3 0 1 0 -6 0z" transform="matrix(1, 0, 0, 1, 150, 150)" style="stroke: rgb(148, 191, 255);"/>
    <path d="M2 -2 L-2 2z" transform="matrix(1, 0, 0, 1, 150, 210)" style="stroke: rgb(148, 191, 255);"/>
    <path d="M2 -2 L-2 2z" transform="matrix(1, 0, 0, 1, 150, 270)" style="stroke: rgb(148, 191, 255);"/>
    <path d="M2 -2 L-2 2z" transform="matrix(1, 0, 0, 1, 150, 330)" style="stroke: rgb(148, 191, 255);"/>
    <path d="M6 -6 L-6 6z" transform="matrix(1, 0, 0, 1, 150, 390)" style="stroke: rgb(148, 191, 255);"/>
    <path d="M-5 0 a5 5 0 1 0 10 0 a5 5 0 1 0 -10 0z" transform="matrix(1, 0, 0, 1, 150, 450)" style="stroke: rgb(148, 191, 255);"/>
    <path d="M-5 0 a5 5 0 1 0 10 0 a5 5 0 1 0 -10 0z" transform="matrix(1, 0, 0, 1, 150, 510)" style="stroke: rgb(148, 191, 255);"/>
    <path d="M2 -2 L-2 2z" transform="matrix(1, 0, 0, 1, 150, 570)" style="stroke: rgb(148, 191, 255);"/>
    <path d="M-5 0 a5 5 0 1 0 10 0 a5 5 0 1 0 -10 0z" transform="matrix(1, 0, 0, 1, 150, 630)" style="stroke: rgb(148, 191, 255);"/>
    <path d="M-5 0 a5 5 0 1 0 10 0 a5 5 0 1 0 -10 0z" transform="matrix(1, 0, 0, 1, 150, 690)" style="stroke: rgb(148, 191, 255);"/>
    <path d="M6 -6 L-6 6z" transform="matrix(1, 0, 0, 1, 210, 30)" style="stroke: rgb(148, 191, 255);"/>
    <path d="M-3 0 a3 3 0 1 0 6 0 a3 3 0 1 0 -6 0z" transform="matrix(1, 0, 0, 1, 210, 90)" style="stroke: rgb(148, 191, 255);"/>
    <path d="M-3 0 a3 3 0 1 0 6 0 a3 3 0 1 0 -6 0z" transform="matrix(1, 0, 0, 1, 210, 150)" style="stroke: rgb(148, 191, 255);"/>
    <path d="M30 -30 L-30 30z" transform="matrix(1, 0, 0, 1, 210, 210)" stroke-width="3" style="stroke: rgb(148, 191, 255);"/>
    <path d="M-5 0 a5 5 0 1 0 10 0 a5 5 0 1 0 -10 0z" transform="matrix(1, 0, 0, 1, 210, 270)" style="stroke: rgb(148, 191, 255);"/>
    <path d="M-3 0 a3 3 0 1 0 6 0 a3 3 0 1 0 -6 0z" transform="matrix(1, 0, 0, 1, 210, 330)" style="stroke: rgb(148, 191, 255);"/>
    <path d="M6 -6 L-6 6z" transform="matrix(1, 0, 0, 1, 210, 390)" style="stroke: rgb(148, 191, 255);"/>
    <path d="M2 -2 L-2 2z" transform="matrix(1, 0, 0, 1, 210, 450)" style="stroke: rgb(148, 191, 255);"/>
    <path d="M-5 0 a5 5 0 1 0 10 0 a5 5 0 1 0 -10 0z" transform="matrix(1, 0, 0, 1, 210, 510)" style="stroke: rgb(148, 191, 255);"/>
    <path d="M-5 0 a5 5 0 1 0 10 0 a5 5 0 1 0 -10 0z" transform="matrix(1, 0, 0, 1, 210, 570)" style="stroke: rgb(148, 191, 255);"/>
    <path d="M6 -6 L-6 6z" transform="matrix(1, 0, 0, 1, 210, 630)" style="stroke: rgb(148, 191, 255);"/>
    <path d="M-3 0 a3 3 0 1 0 6 0 a3 3 0 1 0 -6 0z" transform="matrix(1, 0, 0, 1, 210, 690)" style="stroke: rgb(148, 191, 255);"/>
    <path d="M-5 0 a5 5 0 1 0 10 0 a5 5 0 1 0 -10 0z" transform="matrix(1, 0, 0, 1, 270, 30)" style="stroke: rgb(148, 191, 255);"/>
    <path d="M-5 0 a5 5 0 1 0 10 0 a5 5 0 1 0 -10 0z" transform="matrix(1, 0, 0, 1, 270, 90)" style="stroke: rgb(148, 191, 255);"/>
    <path d="M-5 0 a5 5 0 1 0 10 0 a5 5 0 1 0 -10 0z" transform="matrix(1, 0, 0, 1, 270, 150)" style="stroke: rgb(148, 191, 255);"/>
    <path d="M-5 0 a5 5 0 1 0 10 0 a5 5 0 1 0 -10 0z" transform="matrix(1, 0, 0, 1, 270, 210)" style="stroke: rgb(148, 191, 255);"/>
    <path d="M-5 0 a5 5 0 1 0 10 0 a5 5 0 1 0 -10 0z" transform="matrix(1, 0, 0, 1, 270, 270)" style="stroke: rgb(148, 191, 255);"/>
    <path d="M2 -2 L-2 2z" transform="matrix(1, 0, 0, 1, 270, 330)" style="stroke: rgb(148, 191, 255);"/>
    <path d="M-3 0 a3 3 0 1 0 6 0 a3 3 0 1 0 -6 0z" transform="matrix(1, 0, 0, 1, 270, 390)" style="stroke: rgb(148, 191, 255);"/>
    <path d="M-3 0 a3 3 0 1 0 6 0 a3 3 0 1 0 -6 0z" transform="matrix(1, 0, 0, 1, 270, 450)" style="stroke: rgb(148, 191, 255);"/>
    <path d="M30 -30 L-30 30z" transform="matrix(1, 0, 0, 1, 270, 510)" stroke-width="3" style="stroke: rgb(148, 191, 255);"/>
    <path d="M-5 0 a5 5 0 1 0 10 0 a5 5 0 1 0 -10 0z" transform="matrix(1, 0, 0, 1, 270, 570)" style="stroke: rgb(148, 191, 255);"/>
    <path d="M6 -6 L-6 6z" transform="matrix(1, 0, 0, 1, 270, 630)" style="stroke: rgb(148, 191, 255);"/>
    <path d="M30 -30 L-30 30z" transform="matrix(1, 0, 0, 1, 270, 690)" stroke-width="3" style="stroke: rgb(148, 191, 255);"/>
    <path d="M-5 0 a5 5 0 1 0 10 0 a5 5 0 1 0 -10 0z" transform="matrix(1, 0, 0, 1, 330, 30)" style="stroke: rgb(148, 191, 255);"/>
    <path d="M6 -6 L-6 6z" transform="matrix(1, 0, 0, 1, 330, 90)" style="stroke: rgb(148, 191, 255);"/>
    <path d="M6 -6 L-6 6z" transform="matrix(1, 0, 0, 1, 330, 150)" style="stroke: rgb(148, 191, 255);"/>
    <path d="M-5 0 a5 5 0 1 0 10 0 a5 5 0 1 0 -10 0z" transform="matrix(1, 0, 0, 1, 330, 210)" style="stroke: rgb(148, 191, 255);"/>
    <path d="M-5 0 a5 5 0 1 0 10 0 a5 5 0 1 0 -10 0z" transform="matrix(1, 0, 0, 1, 330, 270)" style="stroke: rgb(148, 191, 255);"/>
    <path d="M-3 0 a3 3 0 1 0 6 0 a3 3 0 1 0 -6 0z" transform="matrix(1, 0, 0, 1, 330, 330)" style="stroke: rgb(148, 191, 255);"/>
    <path d="M6 -6 L-6 6z" transform="matrix(1, 0, 0, 1, 330, 390)" style="stroke: rgb(148, 191, 255);"/>
    <path d="M6 -6 L-6 6z" transform="matrix(1, 0, 0, 1, 330, 450)" style="stroke: rgb(148, 191, 255);"/>
    <path d="M-3 0 a3 3 0 1 0 6 0 a3 3 0 1 0 -6 0z" transform="matrix(1, 0, 0, 1, 330, 510)" style="stroke: rgb(148, 191, 255);"/>
    <path d="M-5 0 a5 5 0 1 0 10 0 a5 5 0 1 0 -10 0z" transform="matrix(1, 0, 0, 1, 330, 570)" style="stroke: rgb(148, 191, 255);"/>
    <path d="M6 -6 L-6 6z" transform="matrix(1, 0, 0, 1, 330, 630)" style="stroke: rgb(148, 191, 255);"/>
    <path d="M6 -6 L-6 6z" transform="matrix(1, 0, 0, 1, 330, 690)" style="stroke: rgb(148, 191, 255);"/>
    <path d="M2 -2 L-2 2z" transform="matrix(1, 0, 0, 1, 390, 30)" style="stroke: rgb(148, 191, 255);"/>
    <path d="M6 -6 L-6 6z" transform="matrix(1, 0, 0, 1, 390, 90)" style="stroke: rgb(148, 191, 255);"/>
    <path d="M6 -6 L-6 6z" transform="matrix(1, 0, 0, 1, 390, 150)" style="stroke: rgb(148, 191, 255);"/>
    <path d="M-5 0 a5 5 0 1 0 10 0 a5 5 0 1 0 -10 0z" transform="matrix(1, 0, 0, 1, 390, 210)" style="stroke: rgb(148, 191, 255);"/>
    <path d="M2 -2 L-2 2z" transform="matrix(1, 0, 0, 1, 390, 270)" style="stroke: rgb(148, 191, 255);"/>
    <path d="M-5 0 a5 5 0 1 0 10 0 a5 5 0 1 0 -10 0z" transform="matrix(1, 0, 0, 1, 390, 330)" style="stroke: rgb(148, 191, 255);"/>
    <path d="M6 -6 L-6 6z" transform="matrix(1, 0, 0, 1, 390, 390)" style="stroke: rgb(148, 191, 255);"/>
    <path d="M-3 0 a3 3 0 1 0 6 0 a3 3 0 1 0 -6 0z" transform="matrix(1, 0, 0, 1, 390, 450)" style="stroke: rgb(148, 191, 255);"/>
    <path d="M2 -2 L-2 2z" transform="matrix(1, 0, 0, 1, 390, 510)" style="stroke: rgb(148, 191, 255);"/>
    <path d="M-1 0 a1 1 0 1 0 2 0 a1 1 0 1 0 -2 0z" transform="matrix(1, 0, 0, 1, 390, 570)" style="stroke: rgb(148, 191, 255);"/>
    <path d="M6 -6 L-6 6z" transform="matrix(1, 0, 0, 1, 390, 630)" style="stroke: rgb(148, 191, 255);"/>
    <path d="M6 -6 L-6 6z" transform="matrix(1, 0, 0, 1, 390, 690)" style="stroke: rgb(148, 191, 255);"/>
    <path d="M-5 0 a5 5 0 1 0 10 0 a5 5 0 1 0 -10 0z" transform="matrix(1, 0, 0, 1, 450, 30)" style="stroke: rgb(148, 191, 255);"/>
    <path d="M-1 0 a1 1 0 1 0 2 0 a1 1 0 1 0 -2 0z" transform="matrix(1, 0, 0, 1, 450, 90)" style="stroke: rgb(148, 191, 255);"/>
    <path d="M6 -6 L-6 6z" transform="matrix(1, 0, 0, 1, 450, 150)" style="stroke: rgb(148, 191, 255);"/>
    <path d="M-5 0 a5 5 0 1 0 10 0 a5 5 0 1 0 -10 0z" transform="matrix(1, 0, 0, 1, 450, 210)" style="stroke: rgb(148, 191, 255);"/>
    <path d="M-1 0 a1 1 0 1 0 2 0 a1 1 0 1 0 -2 0z" transform="matrix(1, 0, 0, 1, 450, 270)" style="stroke: rgb(148, 191, 255);"/>
    <path d="M-3 0 a3 3 0 1 0 6 0 a3 3 0 1 0 -6 0z" transform="matrix(1, 0, 0, 1, 450, 330)" style="stroke: rgb(148, 191, 255);"/>
    <path d="M-3 0 a3 3 0 1 0 6 0 a3 3 0 1 0 -6 0z" transform="matrix(1, 0, 0, 1, 450, 390)" style="stroke: rgb(148, 191, 255);"/>
    <path d="M6 -6 L-6 6z" transform="matrix(1, 0, 0, 1, 450, 450)" style="stroke: rgb(148, 191, 255);"/>
    <path d="M6 -6 L-6 6z" transform="matrix(1, 0, 0, 1, 450, 510)" style="stroke: rgb(148, 191, 255);"/>
    <path d="M6 -6 L-6 6z" transform="matrix(1, 0, 0, 1, 450, 570)" style="stroke: rgb(148, 191, 255);"/>
    <path d="M6 -6 L-6 6z" transform="matrix(1, 0, 0, 1, 450, 630)" style="stroke: rgb(148, 191, 255);"/>
    <path d="M6 -6 L-6 6z" transform="matrix(1, 0, 0, 1, 450, 690)" style="stroke: rgb(148, 191, 255);"/>
    <path d="M-5 0 a5 5 0 1 0 10 0 a5 5 0 1 0 -10 0z" transform="matrix(1, 0, 0, 1, 510, 30)" style="stroke: rgb(148, 191, 255);"/>
    <path d="M2 -2 L-2 2z" transform="matrix(1, 0, 0, 1, 510, 90)" style="stroke: rgb(148, 191, 255);"/>
    <path d="M-5 0 a5 5 0 1 0 10 0 a5 5 0 1 0 -10 0z" transform="matrix(1, 0, 0, 1, 510, 150)" style="stroke: rgb(148, 191, 255);"/>
    <path d="M-5 0 a5 5 0 1 0 10 0 a5 5 0 1 0 -10 0z" transform="matrix(1, 0, 0, 1, 510, 210)" style="stroke: rgb(148, 191, 255);"/>
    <path d="M-5 0 a5 5 0 1 0 10 0 a5 5 0 1 0 -10 0z" transform="matrix(1, 0, 0, 1, 510, 270)" style="stroke: rgb(148, 191, 255);"/>
    <path d="M2 -2 L-2 2z" transform="matrix(1, 0, 0, 1, 510, 330)" style="stroke: rgb(148, 191, 255);"/>
    <path d="M2 -2 L-2 2z" transform="matrix(1, 0, 0, 1, 510, 390)" style="stroke: rgb(148, 191, 255);"/>
    <path d="M2 -2 L-2 2z" transform="matrix(1, 0, 0, 1, 510, 450)" style="stroke: rgb(148, 191, 255);"/>
    <path d="M-3 0 a3 3 0 1 0 6 0 a3 3 0 1 0 -6 0z" transform="matrix(1, 0, 0, 1, 510, 510)" style="stroke: rgb(148, 191, 255);"/>
    <path d="M6 -6 L-6 6z" transform="matrix(1, 0, 0, 1, 510, 570)" style="stroke: rgb(148, 191, 255);"/>
    <path d="M2 -2 L-2 2z" transform="matrix(1, 0, 0, 1, 510, 630)" style="stroke: rgb(148, 191, 255);"/>
    <path d="M-5 0 a5 5 0 1 0 10 0 a5 5 0 1 0 -10 0z" transform="matrix(1, 0, 0, 1, 510, 690)" style="stroke: rgb(148, 191, 255);"/>
    <path d="M6 -6 L-6 6z" transform="matrix(1, 0, 0, 1, 570, 30)" style="stroke: rgb(148, 191, 255);"/>
    <path d="M6 -6 L-6 6z" transform="matrix(1, 0, 0, 1, 570, 90)" style="stroke: rgb(148, 191, 255);"/>
    <path d="M2 -2 L-2 2z" transform="matrix(1, 0, 0, 1, 570, 150)" style="stroke: rgb(148, 191, 255);"/>
    <path d="M-3 0 a3 3 0 1 0 6 0 a3 3 0 1 0 -6 0z" transform="matrix(1, 0, 0, 1, 570, 210)" style="stroke: rgb(148, 191, 255);"/>
    <path d="M2 -2 L-2 2z" transform="matrix(1, 0, 0, 1, 570, 270)" style="stroke: rgb(148, 191, 255);"/>
    <path d="M2 -2 L-2 2z" transform="matrix(1, 0, 0, 1, 570, 330)" style="stroke: rgb(148, 191, 255);"/>
    <path d="M30 -30 L-30 30z" transform="matrix(1, 0, 0, 1, 570, 390)" stroke-width="3" style="stroke: rgb(148, 191, 255);"/>
    <path d="M-1 0 a1 1 0 1 0 2 0 a1 1 0 1 0 -2 0z" transform="matrix(1, 0, 0, 1, 570, 450)" style="stroke: rgb(148, 191, 255);"/>
    <path d="M-5 0 a5 5 0 1 0 10 0 a5 5 0 1 0 -10 0z" transform="matrix(1, 0, 0, 1, 570, 510)" style="stroke: rgb(148, 191, 255);"/>
    <path d="M-5 0 a5 5 0 1 0 10 0 a5 5 0 1 0 -10 0z" transform="matrix(1, 0, 0, 1, 570, 570)" style="stroke: rgb(148, 191, 255);"/>
    <path d="M6 -6 L-6 6z" transform="matrix(1, 0, 0, 1, 570, 630)" style="stroke: rgb(148, 191, 255);"/>
    <path d="M-3 0 a3 3 0 1 0 6 0 a3 3 0 1 0 -6 0z" transform="matrix(1, 0, 0, 1, 570, 690)" style="stroke: rgb(148, 191, 255);"/>
    <path d="M-5 0 a5 5 0 1 0 10 0 a5 5 0 1 0 -10 0z" transform="matrix(1, 0, 0, 1, 630, 30)" style="stroke: rgb(148, 191, 255);"/>
    <path d="M6 -6 L-6 6z" transform="matrix(1, 0, 0, 1, 630, 90)" style="stroke: rgb(148, 191, 255);"/>
    <path d="M-5 0 a5 5 0 1 0 10 0 a5 5 0 1 0 -10 0z" transform="matrix(1, 0, 0, 1, 630, 150)" style="stroke: rgb(148, 191, 255);"/>
    <path d="M-1 0 a1 1 0 1 0 2 0 a1 1 0 1 0 -2 0z" transform="matrix(1, 0, 0, 1, 630, 210)" style="stroke: rgb(148, 191, 255);"/>
    <path d="M-5 0 a5 5 0 1 0 10 0 a5 5 0 1 0 -10 0z" transform="matrix(1, 0, 0, 1, 630, 270)" style="stroke: rgb(148, 191, 255);"/>
    <path d="M6 -6 L-6 6z" transform="matrix(1, 0, 0, 1, 630, 330)" style="stroke: rgb(148, 191, 255);"/>
    <path d="M2 -2 L-2 2z" transform="matrix(1, 0, 0, 1, 630, 390)" style="stroke: rgb(148, 191, 255);"/>
    <path d="M6 -6 L-6 6z" transform="matrix(1, 0, 0, 1, 630, 450)" style="stroke: rgb(148, 191, 255);"/>
    <path d="M-1 0 a1 1 0 1 0 2 0 a1 1 0 1 0 -2 0z" transform="matrix(1, 0, 0, 1, 630, 510)" style="stroke: rgb(148, 191, 255);"/>
    <path d="M-3 0 a3 3 0 1 0 6 0 a3 3 0 1 0 -6 0z" transform="matrix(1, 0, 0, 1, 630, 570)" style="stroke: rgb(148, 191, 255);"/>
    <path d="M-1 0 a1 1 0 1 0 2 0 a1 1 0 1 0 -2 0z" transform="matrix(1, 0, 0, 1, 630, 630)" style="stroke: rgb(148, 191, 255);"/>
    <path d="M-1 0 a1 1 0 1 0 2 0 a1 1 0 1 0 -2 0z" transform="matrix(1, 0, 0, 1, 630, 690)" style="stroke: rgb(148, 191, 255);"/>
    <path d="M-5 0 a5 5 0 1 0 10 0 a5 5 0 1 0 -10 0z" transform="matrix(1, 0, 0, 1, 690, 30)" style="stroke: rgb(148, 191, 255);"/>
    <path d="M6 -6 L-6 6z" transform="matrix(1, 0, 0, 1, 690, 90)" style="stroke: rgb(148, 191, 255);"/>
    <path d="M-3 0 a3 3 0 1 0 6 0 a3 3 0 1 0 -6 0z" transform="matrix(1, 0, 0, 1, 690, 150)" style="stroke: rgb(148, 191, 255);"/>
    <path d="M6 -6 L-6 6z" transform="matrix(1, 0, 0, 1, 690, 210)" style="stroke: rgb(148, 191, 255);"/>
    <path d="M6 -6 L-6 6z" transform="matrix(1, 0, 0, 1, 690, 270)" style="stroke: rgb(148, 191, 255);"/>
    <path d="M6 -6 L-6 6z" transform="matrix(1, 0, 0, 1, 690, 330)" style="stroke: rgb(148, 191, 255);"/>
    <path d="M2 -2 L-2 2z" transform="matrix(1, 0, 0, 1, 690, 390)" style="stroke: rgb(148, 191, 255);"/>
    <path d="M-5 0 a5 5 0 1 0 10 0 a5 5 0 1 0 -10 0z" transform="matrix(1, 0, 0, 1, 690, 450)" style="stroke: rgb(148, 191, 255);"/>
    <path d="M-5 0 a5 5 0 1 0 10 0 a5 5 0 1 0 -10 0z" transform="matrix(1, 0, 0, 1, 690, 510)" style="stroke: rgb(148, 191, 255);"/>
    <path d="M6 -6 L-6 6z" transform="matrix(1, 0, 0, 1, 690, 570)" style="stroke: rgb(148, 191, 255);"/>
    <path d="M-5 0 a5 5 0 1 0 10 0 a5 5 0 1 0 -10 0z" transform="matrix(1, 0, 0, 1, 690, 630)" style="stroke: rgb(148, 191, 255);"/>
    <path d="M-5 0 a5 5 0 1 0 10 0 a5 5 0 1 0 -10 0z" transform="matrix(1, 0, 0, 1, 690, 690)" style="stroke: rgb(148, 191, 255);"/>
  </symbol>
</svg>